<svg width="419" height="331" viewBox="0 0 419 331" fill="none" xmlns="http://www.w3.org/2000/svg">
<path d="M415.786 237.835C389.081 248.414 355.805 249.781 329.125 247.877C310.966 246.574 295.861 243.772 287.97 241.332C268.477 235.301 266.766 178.427 266.766 178.427C266.766 178.427 245.075 163.084 212.633 134.035C180.18 104.986 197.441 65.6708 197.441 65.6708C197.441 65.6708 282.636 73.9601 286.128 111.36C289.619 148.771 306.37 184.975 307.464 188.675C308.471 192.079 300.174 116.239 310.671 100.237C310.682 100.226 310.693 100.215 310.693 100.215C311.569 98.8798 312.586 97.9603 313.747 97.5436C328.785 92.2132 316.861 59.1135 316.861 59.1135C316.861 59.1135 296.519 68.9543 238.223 47.3378C179.928 25.7102 189.254 8.75528 183.835 4.37764C178.417 -3.81023e-06 164.079 0 164.079 0C170.635 29.5531 141.313 45.2049 124.675 58.371C108.421 71.2433 103.878 66.7661 111.146 77.4821C118.414 88.1871 134.525 108.359 133.704 143.898C133.508 152.458 131.734 157.623 128.976 160.48C126.941 162.603 124.347 163.469 121.445 163.501C120.986 163.501 120.526 163.49 120.055 163.456C110.785 162.789 98.9192 154.898 91.4326 152.894C77.894 149.271 117.012 214.528 118.818 217.647C118.818 217.647 44.6653 182.791 18.0441 196.303C3.04018 200.186 0 220.309 0 226.611C0 255.25 65.4777 298.499 65.4777 298.499C65.4777 298.499 34.9265 236.418 67.8061 241.333C100.686 246.248 262.59 331.643 283.386 328.249C304.183 324.855 415.822 263.462 415.822 263.462L415.825 237.816C415.825 237.816 415.797 237.83 415.786 237.835Z" fill="#00FFFB"/>
<path d="M26.1712 258.703C26.1712 258.703 61.1456 312.67 120.458 315.042C179.771 317.413 242.029 311.237 242.029 311.237C242.029 311.237 100.235 240.258 80.5333 237.972C60.8309 235.688 19.239 232.829 26.1712 258.703Z" fill="url(#paint0_linear_2_465)"/>
<path d="M416.917 240.008V248.655C416.917 248.655 294.373 324.715 253.306 315.039C212.239 305.374 26.1678 185.972 21.7901 228.155C21.7901 228.155 5.37245 200.682 32.7361 197.202C60.0997 193.733 119.916 219.837 119.916 219.837C118.11 216.717 78.9921 151.462 92.5307 155.085C100.017 157.088 111.881 164.98 121.153 165.647C121.624 165.681 122.084 165.692 122.543 165.692C125.443 165.658 128.039 164.794 130.074 162.671C132.833 159.814 134.606 154.649 134.802 146.089C135.624 110.549 119.512 90.3768 112.244 79.6731C104.976 68.957 109.519 73.4342 125.773 60.5619C142.409 47.3946 171.733 31.7428 165.177 2.19092C165.177 2.19092 179.514 2.19092 184.933 6.56979C190.351 10.9474 181.026 27.9023 239.321 49.5299C297.616 71.1464 314.844 63.4963 314.844 63.4963C314.844 63.4963 329.882 94.4066 314.844 99.7369C313.683 100.152 312.665 101.072 311.79 102.408C311.79 102.408 311.779 102.419 311.768 102.43C301.271 118.433 309.567 194.274 308.561 190.868C307.466 187.169 292.558 148.149 289.067 110.737C285.576 73.3371 198.538 67.8641 198.538 67.8641C198.538 67.8641 181.277 107.179 213.73 136.228C246.172 165.277 262.601 180.054 262.601 180.054C262.601 180.054 269.574 237.496 289.067 243.527C296.958 245.968 312.063 248.77 330.221 250.072C356.906 251.976 390.191 250.608 416.898 240.024C416.906 240.008 416.917 240.008 416.917 240.008Z" fill="url(#paint1_linear_2_465)"/>
<path d="M416.917 240.008V248.655C416.917 248.655 294.373 324.715 253.306 315.039C212.239 305.374 26.1678 185.972 21.7901 228.155C21.7901 228.155 5.37245 200.682 32.7361 197.202C60.0997 193.733 119.916 219.837 119.916 219.837C118.11 216.717 78.9921 151.462 92.5307 155.085C100.017 157.088 111.881 164.98 121.153 165.647C121.624 165.681 122.084 165.692 122.543 165.692C125.443 165.658 128.039 164.794 130.074 162.671C132.833 159.814 134.606 154.649 134.802 146.089C135.624 110.549 119.512 90.3768 112.244 79.6731C104.976 68.957 109.519 73.4342 125.773 60.5619C142.409 47.3946 171.733 31.7428 165.177 2.19092C165.177 2.19092 179.514 2.19092 184.933 6.56979C190.351 10.9474 181.026 27.9023 239.321 49.5299C297.616 71.1464 314.844 63.4963 314.844 63.4963C314.844 63.4963 329.882 94.4066 314.844 99.7369C313.683 100.152 312.665 101.072 311.79 102.408C311.79 102.408 311.779 102.419 311.768 102.43C301.271 118.433 309.567 194.274 308.561 190.868C307.466 187.169 292.558 148.149 289.067 110.737C285.576 73.3371 198.538 67.8641 198.538 67.8641C198.538 67.8641 181.277 107.179 213.73 136.228C246.172 165.277 262.601 180.054 262.601 180.054C262.601 180.054 269.574 237.496 289.067 243.527C296.958 245.968 312.063 248.77 330.221 250.072C356.906 251.976 390.191 250.608 416.898 240.024C416.906 240.008 416.917 240.008 416.917 240.008Z" fill="url(#paint2_linear_2_465)"/>
<path opacity="0.75" d="M416.894 240.019C414.99 241.004 293.234 304.3 269.339 307.563C245.259 310.847 92.1228 223.612 92.1228 223.612L119.913 219.836C119.913 219.836 200.931 215.622 203.12 206.318C205.145 197.704 134.285 170.187 121.15 165.644C120.099 165.272 119.42 165.053 119.169 165.01C115.799 164.331 130.071 162.668 130.071 162.668C130.071 162.668 185.06 168.01 200.384 167.463C215.707 166.916 182.871 101.791 178.493 92.4871C174.115 83.1835 151.906 80.2061 151.906 80.2061C175.121 75.0404 188.891 28.0297 188.891 28.0297C192.721 60.4385 286.172 80.8625 294.513 95.2235C302.591 109.135 311.227 102.831 311.763 102.425C301.266 118.427 309.563 194.268 308.556 190.863C307.462 187.164 292.554 148.144 289.063 110.732C285.571 73.3317 198.534 67.8587 198.534 67.8587C198.534 67.8587 181.273 107.174 213.726 136.223C246.168 165.272 262.596 180.048 262.596 180.048C262.596 180.048 269.569 237.49 289.063 243.521C296.954 245.963 312.058 248.764 330.217 250.066C356.903 251.97 390.187 250.602 416.894 240.019Z" fill="url(#paint3_linear_2_465)"/>
<path opacity="0.75" d="M22.344 200.765C22.344 200.765 164.447 248.822 162.988 246.633C161.529 244.443 117.747 186.069 136.72 186.798C155.692 187.527 182.69 182.42 168.096 145.206C153.502 107.991 130.152 80.2627 130.152 80.2627C130.152 80.2627 186.325 45.9669 165.171 2.18555C165.171 2.18555 182.089 23.0202 109.357 71.1411C106.819 72.8203 108.924 74.9606 110.816 77.343C121.799 91.1742 146.206 137.542 130.079 162.661C130.079 162.661 120.02 170.801 95.7767 157.007C93.4767 155.698 90.6234 157.446 90.7217 160.09C90.841 163.284 92.1625 168.447 96.427 176.738C106.366 196.058 119.912 219.833 119.912 219.833C119.912 219.833 42.2321 186.275 22.344 200.765Z" fill="url(#paint4_linear_2_465)"/>
<path opacity="0.75" d="M330.22 250.066C330.22 250.066 303.82 279.466 242.032 272.176C180.716 264.93 116.872 218.872 115.876 218.16C116.796 218.544 172.639 242.283 192.176 246.705C211.877 251.16 228.657 218.17 221.367 200.768C214.888 185.324 139.497 169.147 122.542 165.688C120.385 165.239 119.171 165.009 119.171 165.009L130.073 162.667C130.073 162.667 176.853 176.578 203.856 178.045C230.847 179.5 189.988 115.284 184.876 95.5826C182.085 84.8014 165.941 81.2216 151.908 80.2037C166.761 79.4157 184.459 76.7345 188.531 68.5902C192.548 60.5566 191.048 42.5727 188.892 28.0261C192.111 35.4143 197.879 42.376 208.232 44.5101C233.035 49.6106 291.417 84.6354 304.551 90.4809C317.685 96.314 314.839 63.4897 314.839 63.4897C314.839 63.4897 329.878 94.4 314.839 99.7304C299.801 105.072 309.652 194.55 308.556 190.862C307.462 187.163 292.554 148.143 289.063 110.73C285.572 73.3305 198.534 67.8575 198.534 67.8575C198.534 67.8575 181.273 107.173 213.726 136.222C246.168 165.271 262.597 180.047 262.597 180.047C262.597 180.047 269.569 237.489 289.063 243.52C296.956 245.961 312.061 248.764 330.22 250.066Z" fill="url(#paint5_linear_2_465)"/>
<path d="M226.382 146.35C226.382 146.35 254.91 170.036 246.71 177.505C238.511 184.974 220.822 175.205 226.382 188.299C231.942 201.392 229.064 227.442 243.702 226.59C258.338 225.738 274.67 223.713 271.589 217.247C268.507 210.781 262.598 180.049 262.598 180.049L226.382 146.35Z" fill="url(#paint6_linear_2_465)"/>
<path opacity="0.29" d="M151.907 80.2053C151.907 80.2053 167.663 85.371 172.257 95.2228C176.851 105.073 201.478 157.728 197.1 159.038C192.722 160.348 134.847 155.408 132.46 159.038C130.071 162.669 121.416 170.491 139.638 177.314C157.86 184.136 191.693 197.037 190.533 204.677C189.374 212.318 115.011 218.359 124.314 218.359C133.618 218.359 207.156 211.689 203.12 206.318C199.085 200.948 135.259 171.504 140.185 167.842C145.111 164.18 202.173 172.051 203.282 165.998C204.389 159.943 196.008 124.776 178.495 92.4875C178.495 92.4875 170.967 81.9301 151.907 80.2053Z" fill="url(#paint7_linear_2_465)"/>
<path d="M119.914 219.836C119.914 219.836 235.847 270.805 254.51 265.652C273.171 260.499 296.888 245.527 296.888 245.527L286.306 210.256C286.306 210.256 273.049 208.064 267.817 209.52C265.189 210.251 272.326 214.3 268.594 215.181C237.45 222.525 170.438 232.504 109.976 202.6L104.978 203.042L119.914 219.836Z" fill="url(#paint8_linear_2_465)"/>
<path opacity="0.28" d="M169.266 211.878L171.072 210.608C170.218 211.341 169.475 211.769 169.266 211.878Z" fill="#92278F"/>
<path opacity="0.75" d="M222.222 228.937C222.222 228.937 220.074 236.015 224.185 244.243C228.296 252.471 233.47 255.829 233.47 255.829L237.778 263.98L233.47 270.922C233.47 270.922 241.466 275.586 241.995 276.069C242.525 276.551 247.954 276.884 249.435 272.887C250.917 268.889 258.039 267.523 265.97 266.017C273.901 264.511 287.951 252.786 287.951 252.786L298.349 264.37C298.349 264.37 304.676 263.577 303.7 259.118C302.724 254.659 281.69 241.101 281.69 241.101C281.69 241.101 284.117 234.956 283.387 228.937C282.657 222.918 283.089 217.959 275.843 216.57C268.594 215.18 260.021 216.737 258.053 217.111C256.084 217.486 222.222 228.937 222.222 228.937Z" fill="url(#paint9_linear_2_465)"/>
<path d="M104.978 203.041C104.978 203.041 138.362 218.893 147.847 222.001C157.333 225.108 192.723 230.244 192.723 230.244L198.012 225.776L196.37 230.523L205.9 230.887L206.95 226.883L208.774 230.523C208.774 230.523 287.148 217.009 287.821 215.311C288.493 213.613 286.304 210.254 286.304 210.254L268.977 209.517C268.977 209.517 283.386 211.607 263.501 215.985C243.617 220.362 209.231 224.572 190.714 222.752C172.196 220.933 129.019 215.295 109.974 202.597L104.978 203.041Z" fill="url(#paint10_linear_2_465)"/>
<path d="M312.946 245.137C313.1 244.372 313.083 243.553 312.821 242.685C312.681 242.068 312.427 241.521 312.067 241.062C310.965 239.318 309.334 238.764 307.553 238.872C306.374 238.755 305.264 238.903 304.544 239.278C303.979 239.569 303.254 239.999 302.48 240.48C299.55 241.985 297.184 243.991 297.184 243.991L279.831 236.823C279.998 236.244 280.153 235.634 280.283 234.973C280.712 232.821 280.914 230.213 280.815 227.09C280.807 226.799 280.81 226.53 280.796 226.228C280.771 225.79 280.738 225.363 280.692 224.936L280.69 224.935C280.29 221.074 279.006 217.95 277.114 215.442C276.22 216.31 274.198 216.449 272.86 216.12C271.744 215.838 270.715 215.184 269.874 214.47C270.499 213.632 271.172 212.73 271.914 211.745C272.018 211.606 272.131 211.467 272.252 211.328C272.598 210.92 272.938 210.52 273.284 210.13C282.363 199.645 289.489 196.104 292.172 195.114C292.509 194.99 292.809 194.897 293.091 194.818C293.632 194.71 294.141 194.616 294.631 194.53C296.088 194.42 296.852 194.842 298.89 194.117C299.072 194.057 299.264 193.987 299.463 193.901C300.033 193.798 300.407 193.37 300.649 192.863C300.973 192.509 301.121 192.047 301.086 191.415C301.081 191.328 301.075 191.231 301.07 191.137C301.071 191.115 301.076 191.084 301.077 191.064C301.094 190.856 301.094 190.725 301.094 190.725L301.086 190.734C301.107 189.921 300.993 189.029 300.794 188.143C300.459 185.734 299.731 183.179 297.984 182.675C297.982 182.673 297.978 182.67 297.978 182.67C295.886 181.385 291.512 185.361 291.277 185.577L291.27 185.562C291.193 185.139 289.895 178.393 285.296 178.409C284.684 178.361 284.12 178.468 283.608 178.689L283.606 178.69C282.016 179.198 281.2 180.317 280.857 181.696C280.855 181.702 280.855 181.692 280.852 181.706C280.848 181.721 280.849 181.734 280.845 181.749C280.823 181.84 280.801 181.931 280.782 182.024C280.44 182.977 280.32 183.927 280.478 184.605C280.599 185.13 280.798 185.816 281.029 186.554C281.652 189.345 282.828 191.778 282.828 191.778L282.815 191.795L269.475 209.53C267.988 208.841 266.412 208.283 264.784 207.859C264.965 208.38 264.741 208.857 263.837 209.066C261.866 209.517 261.067 208.025 260.774 207.044C256.424 206.409 251.937 206.497 247.961 207.044C240.648 208.041 233.201 210.757 228.472 215.613L228.466 215.611L202.982 205.09C203.198 204.295 203.339 203.047 203.429 201.623C203.842 198.022 204.283 192.739 203.503 191.489L203.468 191.48C203.339 191.45 202.861 191.349 202.105 191.302L202.071 191.297L202.069 191.3C200.014 191.179 195.893 191.473 190.665 194.674C188.504 195.993 188.139 197.651 188.694 199.336C189.979 203.32 196.394 207.495 196.394 207.937V207.946C196.385 207.963 196.359 207.98 196.325 207.98C195.17 207.98 191.699 208.562 191.699 208.562C191.699 208.562 189.381 212.606 191.699 217.355C192.983 219.993 195.969 219.074 198.374 217.737C198.314 217.781 198.261 217.833 198.201 217.876L198.522 217.659C200.171 216.712 201.508 215.602 201.777 215.376L201.828 215.333L201.889 215.35L224.419 222.111C223.471 224.877 223.194 228.049 223.824 231.669C223.961 232.456 224.135 233.209 224.342 233.935C224.335 233.927 224.331 233.918 224.321 233.909C224.321 233.909 224.335 233.95 224.361 234.01V234.013L224.362 234.015C224.363 234.026 224.363 234.026 224.374 234.036C224.379 234.048 224.387 234.069 224.392 234.083C224.711 235.271 225.13 236.361 225.618 237.362C225.636 237.398 225.655 237.431 225.672 237.467C225.822 237.778 225.979 238.082 226.141 238.378C226.231 238.54 226.323 238.696 226.416 238.855C226.515 239.022 226.613 239.188 226.714 239.35C226.816 239.514 226.92 239.674 227.026 239.832C227.128 239.986 227.233 240.136 227.338 240.285C227.443 240.432 227.546 240.578 227.654 240.721C227.786 240.896 227.92 241.063 228.055 241.231C228.14 241.336 228.222 241.445 228.308 241.547C228.532 241.813 228.759 242.07 228.992 242.318C229.049 242.379 229.108 242.438 229.166 242.499C229.356 242.697 229.546 242.89 229.739 243.075C229.806 243.139 229.872 243.201 229.938 243.263C230.134 243.446 230.33 243.625 230.528 243.797C230.585 243.845 230.64 243.894 230.697 243.942C230.928 244.139 231.161 244.329 231.395 244.512C231.411 244.525 231.427 244.539 231.443 244.552C231.448 244.555 231.454 244.559 231.459 244.564C231.766 244.802 232.076 245.029 232.386 245.244C232.388 245.245 232.391 245.247 232.393 245.249C232.692 245.455 232.989 245.649 233.288 245.836C233.318 245.855 233.347 245.873 233.377 245.892C233.984 246.268 234.588 246.603 235.176 246.901C235.201 246.913 235.224 246.925 235.249 246.937C235.527 247.077 235.802 247.208 236.073 247.331C236.09 247.339 236.107 247.347 236.124 247.354C236.688 247.61 237.232 247.833 237.747 248.024C237.787 248.039 237.828 248.054 237.867 248.069C238.366 248.252 238.835 248.408 239.266 248.538C239.307 248.551 239.345 248.562 239.386 248.574C239.558 248.626 239.723 248.672 239.881 248.717C239.914 248.725 239.949 248.736 239.982 248.745L229.898 262.162C229.277 261.806 228.257 261.417 227.078 261.032C224.154 259.908 219.847 258.402 218.633 258.785V258.786H218.632L218.63 258.792C218.625 258.801 218.619 258.812 218.619 258.812L218.605 258.846C218.534 258.977 218.367 259.332 218.172 259.913L218.164 259.939C217.617 261.632 216.975 265.148 218.519 270.216C219.162 272.309 220.464 272.968 221.991 272.873C222.656 272.832 223.364 272.647 224.079 272.374C227.247 271.168 230.553 268.211 230.855 268.29H230.861C230.879 268.307 230.887 268.324 230.879 268.359C230.627 269.323 230.366 272.352 230.366 272.352C230.366 272.352 233.248 275.164 237.717 274.252C240.199 273.748 240.079 271.058 239.479 268.757C239.479 268.755 239.478 268.751 239.477 268.748C239.477 268.748 239.479 268.752 239.48 268.755C239.504 268.815 239.536 268.869 239.559 268.93L239.447 268.614L239.441 268.597C239.022 267.078 238.417 265.771 238.258 265.44L238.242 265.397L238.229 265.368L238.222 265.347L238.247 265.295C238.251 265.29 238.258 265.276 238.262 265.269L243.932 255.908C245.037 258.748 246.58 261.459 248.489 261.685C252.355 262.151 253.265 259.608 253.675 256.481C253.709 256.23 253.739 255.977 253.766 255.721C253.835 255.114 253.894 254.493 253.956 253.871C254.005 253.383 254.055 252.895 254.12 252.416C254.122 252.46 254.133 252.811 254.198 253.383C254.264 254.063 254.396 255.033 254.633 256.072C255.192 258.52 256.368 261.361 258.824 261.735C259.057 261.771 259.302 261.784 259.559 261.773C259.627 261.771 259.681 261.751 259.746 261.746C260.033 261.724 260.315 261.692 260.569 261.628C260.713 261.593 260.835 261.531 260.968 261.483C261.125 261.427 261.291 261.379 261.435 261.306C261.571 261.237 261.687 261.148 261.812 261.065C261.93 260.988 262.057 260.919 262.164 260.83C262.282 260.734 262.382 260.621 262.488 260.513C262.582 260.419 262.683 260.33 262.767 260.227C262.865 260.109 262.948 259.978 263.035 259.851C263.11 259.741 263.19 259.635 263.258 259.52C263.335 259.387 263.401 259.246 263.468 259.106C263.528 258.983 263.591 258.862 263.644 258.736C263.703 258.594 263.751 258.449 263.801 258.304C263.849 258.168 263.898 258.034 263.939 257.896C263.981 257.756 264.014 257.614 264.048 257.473C264.085 257.323 264.123 257.174 264.154 257.023C264.18 256.894 264.201 256.766 264.223 256.636C264.251 256.47 264.28 256.305 264.3 256.142C264.314 256.034 264.325 255.93 264.337 255.823C264.358 255.635 264.377 255.452 264.389 255.27C264.394 255.198 264.398 255.129 264.403 255.059C264.415 254.841 264.425 254.633 264.43 254.432C264.431 254.41 264.431 254.387 264.431 254.365C264.452 253.297 264.377 252.487 264.357 252.295C264.494 252.799 266.328 259.446 267.745 259.546C271.137 259.794 273.905 254.165 272.473 245.288C272.494 245.286 275.602 244.827 278.026 240.958C278.865 241.42 279.614 241.841 280.279 242.22C281.399 242.922 282.764 243.799 284.228 244.79L296.143 255.435C296.143 255.435 296.66 256.598 297.383 258.087C297.539 258.497 297.693 258.894 297.841 259.268C298.075 260.384 298.24 261.412 299.615 263.246C299.866 263.58 300.188 263.808 300.54 263.985C300.739 264.142 300.948 264.263 301.166 264.346C301.399 264.511 301.778 264.538 302.24 264.475C302.315 264.467 302.391 264.457 302.469 264.441C302.729 264.391 303.01 264.319 303.313 264.218C304.335 264.022 305.426 263.604 306.482 263.058C309.08 261.982 311.722 260.427 311.77 258.324C313.294 255.703 307.913 250.937 307.913 250.937C309.625 249.919 312.392 247.882 312.946 245.137Z" fill="#00FFFB"/>
<path d="M260.623 206.259L260.597 206.346C260.606 206.338 260.623 206.338 260.631 206.329C260.623 206.293 260.623 206.276 260.623 206.259Z" fill="#00FFFB"/>
<path d="M310.501 259.449C309.65 262.235 300.953 267.843 298.349 264.37C295.745 260.898 297.481 260.317 294.877 256.558C292.273 252.791 281.727 240.924 252.137 231.672C241.278 228.27 231.435 225.319 223.336 222.94C210.056 219.043 201.446 216.699 200.621 216.474L200.561 216.457L200.509 216.5C200.24 216.726 198.904 217.836 197.254 218.783C197.202 218.809 197.149 218.834 197.106 218.861C194.702 220.198 191.716 221.119 190.431 218.479C188.114 213.731 190.431 209.687 190.431 209.687C190.431 209.687 193.903 209.106 195.057 209.106C195.091 209.106 195.117 209.088 195.126 209.071V209.062C195.126 208.62 188.711 204.445 187.427 200.461C186.871 198.777 187.236 197.12 189.397 195.799C194.626 192.599 198.746 192.304 200.802 192.425L200.803 192.422L200.837 192.427C201.593 192.474 202.072 192.575 202.201 192.605L202.235 192.614C202.235 192.614 202.582 203.03 201.714 206.215L227.198 216.736L295.909 245.12C295.909 245.12 300.951 241.604 303.27 240.407C305.587 239.199 311.95 240.337 311.664 245.12C311.369 249.903 305.293 252.785 305.293 252.785C305.293 252.785 311.36 256.663 310.501 259.449Z" fill="url(#paint11_linear_2_465)"/>
<path opacity="0.28" d="M227.197 216.734L223.334 222.94L223.152 223.235L200.619 216.474L200.558 216.457L200.507 216.5L197.252 218.782L196.931 219C196.991 218.957 197.044 218.904 197.104 218.861C198.493 217.611 200.125 215.407 199.327 212.299C198.147 207.682 195.577 208.819 195.125 209.061C195.125 208.618 188.71 204.444 187.426 200.459C189.161 201.9 191.705 203.394 193.97 202.308C197.876 200.425 200.802 192.422 200.802 192.422L202.2 192.604C202.2 192.604 202.229 192.605 202.234 192.613C203.446 194.554 201.713 206.214 201.713 206.214L227.197 216.734Z" fill="#92278F"/>
<path opacity="0.28" d="M276.136 241.592C276.136 241.592 293.228 251.515 295.45 257.444C297.673 263.373 298.797 266.368 301.607 265.469C304.417 264.571 310.431 262.633 310.504 259.45C310.576 256.268 305.295 252.787 305.295 252.787C305.295 252.787 314.784 248.527 310.799 242.198C306.813 235.869 295.909 245.119 295.909 245.119L276.135 237.374C276.135 237.374 261.659 231.504 276.136 241.592Z" fill="#92278F"/>
<path opacity="0.76" d="M188.766 197.387C188.74 197.615 189.345 202.162 192.31 199.775C195.275 197.387 189.055 194.782 188.766 197.387Z" fill="white"/>
<path opacity="0.76" d="M193.11 195.868C193.11 195.868 196.454 195.868 196.914 194.493C197.375 193.119 192.101 194.205 193.11 195.868Z" fill="white"/>
<path opacity="0.28" d="M277.497 238.381C277.894 238.617 293.147 248.689 296.69 250.164C300.233 251.638 295.46 258.8 300.667 259.884C305.875 260.97 305.299 252.791 305.297 252.787C305.294 252.784 298.803 247.151 298.803 247.151C298.803 247.151 301.721 242.835 305.316 243.114C308.913 243.393 311.673 246.264 311.673 246.264L306.648 252.062C306.648 252.062 312.028 256.828 310.504 259.449C308.98 262.07 301.448 266.57 299.899 265.47C298.35 264.37 294.877 256.558 294.877 256.558L282.125 245.164C282.125 245.164 260.943 232.144 245.18 229.511C229.418 226.877 244.307 227.542 244.307 227.542C244.307 227.542 273.018 235.709 277.497 238.381Z" fill="#92278F"/>
<path opacity="0.45" d="M205.185 212.303C205.879 213.963 225.901 220.454 224.063 217.568C222.227 214.683 202.798 206.604 205.185 212.303Z" fill="url(#paint12_linear_2_465)"/>
<path d="M299.816 191.858C299.816 191.971 299.816 192.084 299.807 192.187C299.79 192.405 299.756 192.708 299.685 193.046C299.469 193.976 299.008 194.696 298.193 195.026C297.994 195.113 297.802 195.182 297.62 195.243C294.696 196.285 294.399 194.957 290.902 196.241C288.22 197.231 281.093 200.773 272.015 211.258C271.668 211.649 271.329 212.048 270.982 212.455C270.86 212.594 270.747 212.733 270.644 212.872C268.126 215.901 265.479 219.46 262.754 223.635C262.72 223.686 262.694 223.722 262.675 223.748C262.658 223.774 262.65 223.782 262.65 223.782C262.051 224.693 261.452 225.64 260.844 226.612C255.645 234.963 251.043 242.558 247.303 248.815C241.174 259.084 237.346 265.776 236.982 266.418L236.957 266.469L236.974 266.521C237.104 266.79 237.746 268.154 238.18 269.733C238.197 269.785 238.206 269.838 238.214 269.881C238.813 272.181 238.934 274.872 236.452 275.375C231.983 276.286 229.101 273.474 229.101 273.474C229.101 273.474 229.362 270.445 229.613 269.481C229.621 269.447 229.613 269.43 229.595 269.412H229.587C229.222 269.316 224.335 273.779 220.724 273.995C219.196 274.091 217.895 273.431 217.253 271.339C215.708 266.27 216.351 262.754 216.898 261.062L216.906 261.036C217.114 260.411 217.297 260.037 217.357 259.933L217.366 259.907C217.366 259.907 226.159 261.869 228.633 263.284L242.946 244.241L281.563 192.899C281.563 192.899 281.537 192.82 281.484 192.681C281.467 192.647 281.458 192.603 281.441 192.56C281.016 191.414 279.635 187.577 279.21 185.728C279.045 185.025 279.175 184.027 279.548 183.037C279.565 183.003 279.574 182.968 279.591 182.933C280.416 180.858 282.334 178.871 284.964 179.722C288.619 180.911 289.825 185.902 289.973 186.622L289.981 186.648C289.998 186.682 289.998 186.708 289.998 186.708C289.998 186.708 289.998 186.708 290.007 186.708V186.699C290.242 186.483 294.616 182.507 296.708 183.792C298.149 184.68 299.895 188.82 299.816 191.858Z" fill="url(#paint13_linear_2_465)"/>
<path opacity="0.28" d="M242.946 244.243L247.303 248.817L247.511 249.034L236.979 266.421L236.952 266.468L236.977 266.521L238.183 269.738L238.295 270.054C238.271 269.994 238.239 269.938 238.216 269.878C237.471 268.446 235.98 266.603 233.208 266.6C229.089 266.587 229.484 268.983 229.59 269.413C229.22 269.318 224.339 273.78 220.727 273.993C222.308 272.852 224.108 271.047 223.69 268.918C222.96 265.242 216.897 261.064 216.897 261.064L217.352 259.934C217.352 259.934 217.359 259.909 217.366 259.907C219.252 259.313 228.632 263.285 228.632 263.285L242.946 244.243Z" fill="#92278F"/>
<path opacity="0.28" d="M268.08 215.724C268.08 215.724 281.949 197.929 291.769 195.955C297.133 194.876 299.959 195.086 299.815 192.541C299.671 189.995 299.352 184.544 296.705 183.796C294.058 183.047 290.004 186.71 290.004 186.71C290.004 186.71 288.493 177.851 282.337 179.815C276.18 181.78 281.558 192.904 281.558 192.904L270.8 207.77C270.8 207.77 256.508 225.653 268.08 215.724Z" fill="#92278F"/>
<path opacity="0.76" d="M293.641 192.905C293.826 192.975 297.761 193.455 296.405 190.456C295.05 187.459 291.526 192.1 293.641 192.905Z" fill="white"/>
<path opacity="0.76" d="M293.311 188.943C293.311 188.943 294.036 186.145 292.984 185.463C291.935 184.78 291.701 189.427 293.311 188.943Z" fill="white"/>
<path opacity="0.28" d="M299.825 191.849C299.825 191.849 299.825 191.979 299.808 192.187C299.791 192.405 299.756 192.708 299.686 193.047C299.513 193.871 299.105 194.861 298.194 195.026C298.038 195.06 297.838 195.13 297.621 195.243C294.697 196.285 294.4 194.957 290.903 196.242C288.221 197.231 281.094 200.773 272.015 211.258C271.643 211.64 271.295 212.038 270.983 212.455C270.861 212.594 270.748 212.733 270.645 212.872C265.48 219.738 263.24 222.941 262.755 223.635C262.72 223.686 262.695 223.722 262.676 223.748C262.885 223.384 262.494 221.794 262.65 221.36C262.798 220.926 277.016 200.32 280.27 197.82C283.526 195.32 281.564 192.898 281.564 192.898C281.564 192.898 281.538 192.819 281.485 192.68C281.476 192.646 281.468 192.601 281.442 192.558C280.974 191.126 279.185 185.511 279.55 183.036C279.559 182.967 279.567 182.897 279.584 182.828C279.602 182.75 279.602 182.794 279.593 182.933C279.61 183.749 279.619 187.837 282.874 187.837C286.667 187.837 288.838 183.497 288.838 183.497L289.975 186.622L289.983 186.648L290.009 186.7V186.708L292.848 184.694C292.683 184.929 289.419 189.425 290.903 191.214C292.422 193.045 297.448 194.773 299.817 191.857L299.825 191.849Z" fill="#92278F"/>
<path d="M279.009 236.1C277.126 245.595 271.205 246.411 271.205 246.411C272.637 255.282 269.869 260.916 266.483 260.664C265.069 260.568 263.237 253.929 263.089 253.399C263.151 253.997 264.027 262.652 258.289 262.895C254.183 263.077 253.167 256.94 252.934 254.51C252.864 253.894 252.855 253.52 252.855 253.52C252.708 254.614 252.62 255.752 252.5 256.844C252.126 260.307 251.397 263.311 247.222 262.808C243.108 262.322 240.695 250.3 240.695 250.3C240.695 250.3 235.192 249.562 230.175 245.674C227.97 243.964 225.844 241.638 224.351 238.487C223.857 237.472 223.431 236.369 223.109 235.163C223.092 235.146 223.092 235.146 223.092 235.137C223.083 235.12 223.066 235.085 223.075 235.068C222.867 234.339 222.692 233.584 222.553 232.794C219.871 217.344 233.508 209.965 246.693 208.168C250.668 207.621 255.155 207.535 259.505 208.168C259.8 209.149 260.599 210.641 262.568 210.19C263.47 209.982 263.697 209.504 263.515 208.983C265.25 209.434 266.935 210.024 268.506 210.78C268.506 210.78 266.058 212.621 266.813 213.679C267.568 214.746 269.417 216.7 271.588 217.247C272.924 217.576 274.946 217.437 275.841 216.569C277.733 219.077 279.018 222.202 279.417 226.066C279.46 226.491 279.495 226.916 279.522 227.359C279.695 230.882 279.479 233.747 279.009 236.1Z" fill="url(#paint14_linear_2_465)"/>
<path opacity="0.28" d="M265.9 231.622C265.9 231.622 260.47 235.743 262.066 237.768C263.661 239.792 269.166 240.4 269.166 240.4C269.166 240.4 261.665 238.438 268.024 238.272C274.384 238.107 265.9 231.622 265.9 231.622Z" fill="url(#paint15_linear_2_465)"/>
<path opacity="0.28" d="M248.032 231.67C248.032 231.67 255.887 234.664 256.672 238.222C257.456 241.779 249.105 246.371 249.105 246.371C249.105 246.371 255.628 241.895 248.611 241.819C241.594 241.744 248.032 231.67 248.032 231.67Z" fill="url(#paint16_linear_2_465)"/>
<path opacity="0.28" d="M277.495 227.541C277.495 227.541 276.435 237.841 270.82 238.594C265.204 239.348 262.394 235.915 262.394 235.915L277.495 227.541Z" fill="#DD402E"/>
<path opacity="0.28" d="M255.253 237.415C255.253 237.415 252.081 243.713 244.453 242.794C236.825 241.874 230.99 234.689 228.849 228.326C226.707 221.961 255.253 237.415 255.253 237.415Z" fill="#DD402E"/>
<path opacity="0.28" d="M262.447 242.989C262.447 242.989 264.155 247.277 261.678 247.147C259.2 247.017 257.986 244.26 258.058 242.8C258.132 241.339 262.447 242.989 262.447 242.989Z" fill="#DD402E"/>
<path opacity="0.28" d="M275.801 223.681C275.801 223.681 272.018 221.831 267.766 225.641C263.515 229.449 262.232 227.222 262.232 227.222C262.232 227.222 261.632 232.985 260.103 232.824C258.574 232.663 258.339 225.738 258.339 225.738C258.339 225.738 257.599 233.862 254.546 228.517C254.546 228.517 252.834 229.856 248.339 226.298C243.845 222.741 232.068 224.708 229.754 225.01C227.44 225.312 255.254 237.414 255.254 237.414C255.254 237.414 256.32 232.978 259.422 238.538C259.422 238.538 259.449 232.474 262.394 235.914C265.34 239.354 275.801 223.681 275.801 223.681Z" fill="url(#paint17_linear_2_465)"/>
<path d="M255.25 237.418C255.25 237.418 255.24 237.43 255.231 237.441C249.069 245.866 236.362 241.962 231.164 232.866C227.732 226.847 229.372 224.324 234.152 224.441C234.815 224.455 235.536 224.519 236.317 224.644L236.328 224.643C236.374 224.661 236.429 224.667 236.518 224.672C238.571 224.994 240.993 225.65 243.701 226.591C253.062 229.846 254.837 235.126 255.173 236.852C255.191 236.95 255.208 237.026 255.215 237.102C255.242 237.308 255.25 237.418 255.25 237.418Z" fill="#81201C"/>
<path d="M262.394 235.913C262.394 235.913 262.393 235.902 262.403 235.88C262.68 235.219 267.105 224.751 274.209 223.756C274.732 223.67 275.259 223.651 275.801 223.685C280.929 224.003 274.804 245.515 262.394 235.913Z" fill="#81201C"/>
<path d="M257.045 242.583C257.093 242.044 257.326 237.832 259.938 240.581C259.938 240.581 261.972 236.938 263.217 243.296C264.461 249.656 256.768 245.668 257.045 242.583Z" fill="#81201C"/>
<path d="M255.251 237.418C255.251 237.418 255.241 237.43 255.231 237.441C254.866 237.844 250.469 242.404 241.926 239.039C234.03 235.92 229.713 225.278 234.153 224.44C234.729 224.328 235.438 224.382 236.318 224.642L236.329 224.641C236.375 224.66 236.43 224.666 236.519 224.671C238.572 224.993 240.993 225.648 243.702 226.59C253.063 229.845 254.838 235.125 255.174 236.851C255.192 236.937 255.209 237.024 255.215 237.1C255.242 237.308 255.251 237.418 255.251 237.418Z" fill="#BF402E"/>
<path d="M276.026 228.47C274.987 234.107 269.36 240.24 262.392 235.913C262.392 235.913 262.39 235.902 262.4 235.88C262.678 235.218 267.102 224.751 274.207 223.756C275.431 224.583 276.483 226.043 276.026 228.47Z" fill="#BF402E"/>
<path d="M257.045 242.583C257.093 242.044 257.326 237.832 259.939 240.581C259.939 240.581 260.913 238.836 261.926 239.873C261.926 239.873 263.558 246.687 261.019 244.488C261.019 244.488 260.017 246.221 257.491 244.141C257.175 243.631 256.998 243.095 257.045 242.583Z" fill="#BF402E"/>
<path opacity="0.28" d="M252.726 252.061C252.726 252.061 254.448 249.316 253.388 249.192C252.33 249.068 252.726 252.061 252.726 252.061Z" fill="#DD402E"/>
<path opacity="0.28" d="M262.962 252.785C262.962 252.785 264.276 250.882 263.127 250.245C261.977 249.61 262.962 252.785 262.962 252.785Z" fill="#DD402E"/>
<path opacity="0.71" d="M244.304 213.393C244.113 210.036 233.082 215.284 233.479 217.656C233.876 220.029 244.501 216.878 244.304 213.393Z" fill="white"/>
<path opacity="0.71" d="M246.515 213.808C245.267 212.791 241.567 218.255 242.065 218.992C242.563 219.729 247.764 214.825 246.515 213.808Z" fill="white"/>
<path opacity="0.28" d="M253.39 249.191C253.39 249.191 253.311 251.798 252.932 254.505C253.17 256.943 254.187 263.077 258.293 262.894C264.234 262.642 263.077 253.368 263.077 253.368C263.077 253.368 265.005 260.565 266.479 260.668C269.87 260.916 272.64 255.285 271.207 246.408C271.207 246.408 277.126 245.595 279.005 236.101C278.712 236.862 273.37 244.648 271.376 244.245C269.349 243.833 268.426 242.618 268.426 242.618C268.426 242.618 271.652 257.821 268.362 256.915C265.085 256.018 263.126 250.246 263.126 250.246C263.126 250.246 261.622 262.079 258.448 260.546C255.261 259.003 253.39 249.191 253.39 249.191Z" fill="#DD402E"/>
<path opacity="0.28" d="M223.053 235.031C223.053 235.031 223.068 235.074 223.095 235.138C223.096 235.149 223.096 235.149 223.107 235.159C223.247 235.534 223.695 236.733 224.353 238.487C229.248 248.764 240.696 250.299 240.696 250.299C240.696 250.299 243.107 262.317 247.223 262.805C251.395 263.311 252.127 260.311 252.5 256.843C251.958 259.168 251.098 260.966 249.721 260.271C246.415 258.605 243.428 246.821 243.428 246.821C243.428 246.821 232.765 248.385 223.077 235.062C223.065 235.052 223.065 235.041 223.053 235.031Z" fill="#DD402E"/>
<path opacity="0.28" d="M230.148 245.552C230.148 245.552 230.152 245.596 230.18 245.67C235.195 249.558 240.697 250.3 240.697 250.3C240.697 250.3 243.108 262.318 247.224 262.806C251.396 263.311 252.127 260.311 252.501 256.843C252.624 255.754 252.709 254.612 252.854 253.521C252.854 253.521 252.861 253.894 252.932 254.507C253.171 256.944 254.188 263.079 258.294 262.895C264.235 262.643 263.078 253.369 263.078 253.369C263.078 253.369 265.006 260.566 266.48 260.669C269.871 260.917 272.641 255.286 271.208 246.409C271.208 246.409 277.127 245.596 279.005 236.102C279.479 233.751 279.691 230.88 279.522 227.356C279.498 226.917 279.464 226.49 279.418 226.063C278.823 225.229 274.79 243.522 270.171 242.942C270.171 242.942 270.253 251.168 263.712 248.877C263.712 248.877 260.751 253.62 257.19 251.931C253.617 250.243 253.391 249.192 253.391 249.192C253.391 249.192 250.223 254.799 247.318 252.497C244.401 250.183 244.37 246.747 244.37 246.747C244.37 246.747 240.229 250.37 230.148 245.552Z" fill="url(#paint18_linear_2_465)"/>
<path opacity="0.76" d="M231.008 216.375C231.008 216.375 233.415 224.583 244.363 221.401C255.312 218.218 265.175 215.066 255.253 212.302C245.329 209.539 233.034 210.337 231.008 216.375Z" fill="url(#paint19_linear_2_465)"/>
<path d="M259.357 207.455C259.349 207.464 259.332 207.464 259.323 207.472L259.349 207.385C259.349 207.404 259.349 207.421 259.357 207.455Z" fill="url(#paint20_linear_2_465)"/>
<path opacity="0.25" d="M196.371 230.524C196.827 232.314 205.901 255.298 205.901 255.298L210.632 255.828L205.901 230.888L196.371 230.524Z" fill="#FBB040"/>
<path opacity="0.25" d="M192.723 230.244V249.419L133.714 225.772L125.408 213.694L159.065 222.753L192.723 230.244Z" fill="#FBB040"/>
<path opacity="0.75" d="M74.1511 244.673C74.1511 244.673 79.2565 304.882 159.066 315.526C159.066 315.526 229.886 313.837 228.736 312.372C227.585 310.909 83.8222 236.876 74.1511 244.673Z" fill="url(#paint21_linear_2_465)"/>
<path d="M416.919 240.005L416.916 265.651C416.916 265.651 305.277 327.043 284.48 330.438C263.684 333.832 101.78 248.437 68.9001 243.522C36.0205 238.607 26.1699 258.703 26.1699 258.703C26.1699 258.703 4.41448 236.319 4.34687 228.159C4.27926 219.998 7.56282 194.95 38.21 202.002C68.8571 209.054 254.928 301.455 268.062 303.415C281.198 305.374 416.919 240.005 416.919 240.005Z" fill="url(#paint22_linear_2_465)"/>
<path opacity="0.35" d="M269.264 304.701L289.152 323.809C289.152 323.809 278.276 308.666 282.891 308.94C287.507 309.214 332.159 281.099 332.159 281.099C332.159 281.099 348.8 301.918 350.259 298.269C351.719 294.621 342.233 280.712 345.882 281.099C349.53 281.486 380.178 264.186 380.178 264.186V274.624L418.122 241.291L269.264 304.701Z" fill="url(#paint23_linear_2_465)"/>
<path opacity="0.75" d="M109.356 71.1426C109.356 71.1426 115.194 86.101 130.153 80.2642C130.153 80.2642 135.575 142.424 134.539 131.451C134.166 127.511 127.417 101.061 110.817 77.3458C110.817 77.3458 104.439 74.4482 109.356 71.1426Z" fill="url(#paint24_linear_2_465)"/>
<path opacity="0.75" d="M102.567 188.979C102.567 188.979 87.0986 161.26 98.7735 163.449C110.448 165.639 121.15 165.646 121.15 165.646C121.15 165.646 87.8447 149.982 88.6708 156.538C89.0114 159.234 89.4195 162.841 102.567 188.979Z" fill="url(#paint25_linear_2_465)"/>
<path opacity="0.75" d="M18.2693 202.598C18.2693 202.598 14.8591 223.188 34.5615 223.236C54.2628 223.284 57.8033 216.802 55.3569 211.878C52.9093 206.955 31.1649 192.858 18.2693 202.598Z" fill="url(#paint26_linear_2_465)"/>
<path opacity="0.75" d="M65.8461 215.392C65.1835 221.933 63.0211 241.325 86.3709 242.885C109.721 244.445 127.247 239.403 107.56 230.564C87.8732 221.727 66.4976 208.955 65.8461 215.392Z" fill="url(#paint27_linear_2_465)"/>
<path opacity="0.25" d="M253.732 286.186C253.946 287.153 264.881 303.391 287.951 293.275C311.02 283.158 381.043 265.112 363.267 257.929C345.491 250.746 300.532 246.222 287.951 257.929C275.37 269.636 249.921 268.931 253.732 286.186Z" fill="#00A79D"/>
<path opacity="0.12" d="M145.061 119.768C143.095 127.399 142.952 152.985 159.066 150.151C175.18 147.318 182.556 132.787 177.024 119.768C171.492 106.75 151.208 95.9072 145.061 119.768Z" fill="#92278F"/>
<path opacity="0.25" d="M144.152 60.188C140.227 65.9166 157.044 81.8647 172.26 67.8762C187.474 53.8889 167.213 26.5351 144.152 60.188Z" fill="#662D91"/>
<path opacity="0.12" d="M137.684 98.7043C134.975 106.512 151.691 108.485 151.449 98.7043C151.207 88.925 142.428 85.0366 137.684 98.7043Z" fill="#EE2A7B"/>
<path opacity="0.25" d="M155.772 252.786C155.772 252.786 148.234 253.598 143.574 257.929C138.916 262.26 173.506 287.449 190.939 294.524C208.372 301.598 230.862 298.9 221.663 289.059C212.462 279.219 155.772 252.786 155.772 252.786Z" fill="#662D91"/>
<defs>
<linearGradient id="paint0_linear_2_465" x1="118.75" y1="369.997" x2="133.168" y2="284.861" gradientUnits="userSpaceOnUse">
<stop stop-color="#297E85"/>
<stop offset="0.158" stop-color="#1F6F78"/>
<stop offset="0.4819" stop-color="#0E5461"/>
<stop offset="0.7726" stop-color="#044554"/>
<stop offset="1" stop-color="#003F4F"/>
</linearGradient>
<linearGradient id="paint1_linear_2_465" x1="16.9047" y1="159.038" x2="416.917" y2="159.038" gradientUnits="userSpaceOnUse">
<stop stop-color="#297E85"/>
<stop offset="0.158" stop-color="#1F6F78"/>
<stop offset="0.4819" stop-color="#0E5461"/>
<stop offset="0.7726" stop-color="#044554"/>
<stop offset="1" stop-color="#003F4F"/>
</linearGradient>
<linearGradient id="paint2_linear_2_465" x1="16.9047" y1="159.038" x2="416.917" y2="159.038" gradientUnits="userSpaceOnUse">
<stop stop-color="#297E85"/>
<stop offset="0.158" stop-color="#1F6F78"/>
<stop offset="0.4819" stop-color="#0E5461"/>
<stop offset="0.7726" stop-color="#044554"/>
<stop offset="1" stop-color="#003F4F"/>
</linearGradient>
<linearGradient id="paint3_linear_2_465" x1="308.708" y1="337.822" x2="141.519" y2="10.8199" gradientUnits="userSpaceOnUse">
<stop offset="0.1617" stop-color="#006F7C"/>
<stop offset="0.6842" stop-color="#A5CCD1"/>
<stop offset="0.9844" stop-color="white"/>
</linearGradient>
<linearGradient id="paint4_linear_2_465" x1="45.5686" y1="69.3507" x2="257.351" y2="210.539" gradientUnits="userSpaceOnUse">
<stop offset="0.2309" stop-color="#00FFFB"/>
<stop offset="0.2737" stop-color="#00DFDC"/>
<stop offset="0.3511" stop-color="#00ABA9"/>
<stop offset="0.432" stop-color="#007D7B"/>
<stop offset="0.5147" stop-color="#005755"/>
<stop offset="0.5998" stop-color="#003736"/>
<stop offset="0.6879" stop-color="#001F1E"/>
<stop offset="0.7803" stop-color="#000E0D"/>
<stop offset="0.88" stop-color="#000303"/>
<stop offset="1"/>
</linearGradient>
<linearGradient id="paint5_linear_2_465" x1="298.205" y1="-77.04" x2="215.43" y2="243.405" gradientUnits="userSpaceOnUse">
<stop offset="0.4482" stop-color="#006F7C"/>
<stop offset="0.7887" stop-color="#A5CCD1"/>
<stop offset="0.9844" stop-color="white"/>
</linearGradient>
<linearGradient id="paint6_linear_2_465" x1="225.32" y1="186.48" x2="271.967" y2="186.48" gradientUnits="userSpaceOnUse">
<stop/>
<stop offset="0.0036" stop-color="#010001"/>
<stop offset="0.4942" stop-color="#4D005F"/>
<stop offset="0.8368" stop-color="#7D009A"/>
<stop offset="1" stop-color="#9000B1"/>
</linearGradient>
<linearGradient id="paint7_linear_2_465" x1="181.987" y1="184.382" x2="126.713" y2="132.392" gradientUnits="userSpaceOnUse">
<stop/>
<stop offset="0.4763" stop-color="#007776"/>
<stop offset="1" stop-color="#00FFFB"/>
</linearGradient>
<linearGradient id="paint8_linear_2_465" x1="137.88" y1="233.977" x2="283.818" y2="235.109" gradientUnits="userSpaceOnUse">
<stop stop-color="#BA009E"/>
<stop offset="0.3685" stop-color="#8C0072"/>
<stop offset="0.7084" stop-color="#690050"/>
<stop offset="0.8897" stop-color="#5B0043"/>
</linearGradient>
<linearGradient id="paint9_linear_2_465" x1="221.661" y1="246.176" x2="303.802" y2="246.176" gradientUnits="userSpaceOnUse">
<stop offset="0.4482" stop-color="#006F7C"/>
<stop offset="0.7887" stop-color="#A5CCD1"/>
<stop offset="0.9844" stop-color="white"/>
</linearGradient>
<linearGradient id="paint10_linear_2_465" x1="104.978" y1="216.743" x2="287.951" y2="216.743" gradientUnits="userSpaceOnUse">
<stop offset="0.2405" stop-color="#ED98DD"/>
<stop offset="1" stop-color="#823782"/>
</linearGradient>
<linearGradient id="paint11_linear_2_465" x1="214.465" y1="213.638" x2="330.803" y2="262.5" gradientUnits="userSpaceOnUse">
<stop stop-color="#FFF1D2"/>
<stop offset="0.2128" stop-color="#F1D4C0"/>
<stop offset="0.6714" stop-color="#CC8A92"/>
<stop offset="0.9493" stop-color="#B55B74"/>
</linearGradient>
<linearGradient id="paint12_linear_2_465" x1="208.299" y1="208.905" x2="239.33" y2="238.417" gradientUnits="userSpaceOnUse">
<stop offset="0.3514" stop-color="#9AFF51"/>
<stop offset="0.3987" stop-color="#86DD46"/>
<stop offset="0.4999" stop-color="#5E9B31"/>
<stop offset="0.5962" stop-color="#3C6420"/>
<stop offset="0.6848" stop-color="#223912"/>
<stop offset="0.764" stop-color="#0F1A08"/>
<stop offset="0.8311" stop-color="#040702"/>
<stop offset="0.878"/>
</linearGradient>
<linearGradient id="paint13_linear_2_465" x1="252.096" y1="188.397" x2="262.077" y2="256.098" gradientUnits="userSpaceOnUse">
<stop stop-color="#FFF1D2"/>
<stop offset="0.2128" stop-color="#F1D4C0"/>
<stop offset="0.6714" stop-color="#CC8A92"/>
<stop offset="0.9493" stop-color="#B55B74"/>
</linearGradient>
<linearGradient id="paint14_linear_2_465" x1="242.453" y1="215.723" x2="271.242" y2="260.571" gradientUnits="userSpaceOnUse">
<stop stop-color="#FFF1D2"/>
<stop offset="0.2128" stop-color="#F1D4C0"/>
<stop offset="0.6714" stop-color="#CC8A92"/>
<stop offset="0.9493" stop-color="#B55B74"/>
</linearGradient>
<linearGradient id="paint15_linear_2_465" x1="269.914" y1="236.86" x2="261.759" y2="234.489" gradientUnits="userSpaceOnUse">
<stop stop-color="white"/>
<stop offset="0.166" stop-color="#FAE4E2"/>
<stop offset="0.527" stop-color="#EEA198"/>
<stop offset="1" stop-color="#DD402E"/>
</linearGradient>
<linearGradient id="paint16_linear_2_465" x1="262.542" y1="224.048" x2="245.502" y2="243.807" gradientUnits="userSpaceOnUse">
<stop offset="0.4385" stop-color="#DD402E"/>
<stop offset="0.7041" stop-color="#EEA198"/>
<stop offset="0.9068" stop-color="#FAE4E2"/>
<stop offset="1" stop-color="white"/>
</linearGradient>
<linearGradient id="paint17_linear_2_465" x1="253.786" y1="238.955" x2="252.612" y2="223.08" gradientUnits="userSpaceOnUse">
<stop stop-color="white"/>
<stop offset="0.0932" stop-color="#FAE4E2"/>
<stop offset="0.2959" stop-color="#EEA198"/>
<stop offset="0.5615" stop-color="#DD402E"/>
</linearGradient>
<linearGradient id="paint18_linear_2_465" x1="257.041" y1="264.138" x2="255.35" y2="242.871" gradientUnits="userSpaceOnUse">
<stop offset="0.4938" stop-color="white"/>
<stop offset="0.5485" stop-color="#FEFAF9"/>
<stop offset="0.6197" stop-color="#FBEBE9"/>
<stop offset="0.6999" stop-color="#F7D2CE"/>
<stop offset="0.7868" stop-color="#F1B0A9"/>
<stop offset="0.879" stop-color="#E98479"/>
<stop offset="0.9743" stop-color="#E04F3F"/>
<stop offset="1" stop-color="#DD402E"/>
</linearGradient>
<linearGradient id="paint19_linear_2_465" x1="238.364" y1="213.766" x2="260.064" y2="222.88" gradientUnits="userSpaceOnUse">
<stop offset="0.3514" stop-color="#9AFF51"/>
<stop offset="0.3987" stop-color="#86DD46"/>
<stop offset="0.4999" stop-color="#5E9B31"/>
<stop offset="0.5962" stop-color="#3C6420"/>
<stop offset="0.6848" stop-color="#223912"/>
<stop offset="0.764" stop-color="#0F1A08"/>
<stop offset="0.8311" stop-color="#040702"/>
<stop offset="0.878"/>
</linearGradient>
<linearGradient id="paint20_linear_2_465" x1="259.338" y1="207.431" x2="259.368" y2="207.443" gradientUnits="userSpaceOnUse">
<stop offset="0.3514" stop-color="#9AFF51"/>
<stop offset="0.3987" stop-color="#86DD46"/>
<stop offset="0.4999" stop-color="#5E9B31"/>
<stop offset="0.5962" stop-color="#3C6420"/>
<stop offset="0.6848" stop-color="#223912"/>
<stop offset="0.764" stop-color="#0F1A08"/>
<stop offset="0.8311" stop-color="#040702"/>
<stop offset="0.878"/>
</linearGradient>
<linearGradient id="paint21_linear_2_465" x1="70.9617" y1="260.196" x2="55.8169" y2="253.532" gradientUnits="userSpaceOnUse">
<stop offset="0.4482" stop-color="#006F7C"/>
<stop offset="0.7887" stop-color="#A5CCD1"/>
<stop offset="0.9844" stop-color="white"/>
</linearGradient>
<linearGradient id="paint22_linear_2_465" x1="36.0366" y1="167.73" x2="0.51591" y2="152.101" gradientUnits="userSpaceOnUse">
<stop stop-color="#297E85"/>
<stop offset="0.158" stop-color="#1F6F78"/>
<stop offset="0.4819" stop-color="#0E5461"/>
<stop offset="0.7726" stop-color="#044554"/>
<stop offset="1" stop-color="#003F4F"/>
</linearGradient>
<linearGradient id="paint23_linear_2_465" x1="293.116" y1="255.921" x2="283.182" y2="251.55" gradientUnits="userSpaceOnUse">
<stop offset="0.1617" stop-color="#006F7C"/>
<stop offset="0.6842" stop-color="#A5CCD1"/>
<stop offset="0.9844" stop-color="white"/>
</linearGradient>
<linearGradient id="paint24_linear_2_465" x1="100.188" y1="92.3286" x2="95.8087" y2="90.4019" gradientUnits="userSpaceOnUse">
<stop offset="0.2309" stop-color="#00FFFB"/>
<stop offset="0.2737" stop-color="#00DFDC"/>
<stop offset="0.3511" stop-color="#00ABA9"/>
<stop offset="0.432" stop-color="#007D7B"/>
<stop offset="0.5147" stop-color="#005755"/>
<stop offset="0.5998" stop-color="#003736"/>
<stop offset="0.6879" stop-color="#001F1E"/>
<stop offset="0.7803" stop-color="#000E0D"/>
<stop offset="0.88" stop-color="#000303"/>
<stop offset="1"/>
</linearGradient>
<linearGradient id="paint25_linear_2_465" x1="85.1901" y1="165.547" x2="82.1737" y2="164.22" gradientUnits="userSpaceOnUse">
<stop offset="0.2309" stop-color="#00FFFB"/>
<stop offset="0.2737" stop-color="#00DFDC"/>
<stop offset="0.3511" stop-color="#00ABA9"/>
<stop offset="0.432" stop-color="#007D7B"/>
<stop offset="0.5147" stop-color="#005755"/>
<stop offset="0.5998" stop-color="#003736"/>
<stop offset="0.6879" stop-color="#001F1E"/>
<stop offset="0.7803" stop-color="#000E0D"/>
<stop offset="0.88" stop-color="#000303"/>
<stop offset="1"/>
</linearGradient>
<linearGradient id="paint26_linear_2_465" x1="32.2569" y1="205.967" x2="115.442" y2="324.907" gradientUnits="userSpaceOnUse">
<stop offset="0.2309" stop-color="#00FFFB"/>
<stop offset="0.2737" stop-color="#00DFDC"/>
<stop offset="0.3511" stop-color="#00ABA9"/>
<stop offset="0.432" stop-color="#007D7B"/>
<stop offset="0.5147" stop-color="#005755"/>
<stop offset="0.5998" stop-color="#003736"/>
<stop offset="0.6879" stop-color="#001F1E"/>
<stop offset="0.7803" stop-color="#000E0D"/>
<stop offset="0.88" stop-color="#000303"/>
<stop offset="1"/>
</linearGradient>
<linearGradient id="paint27_linear_2_465" x1="58.803" y1="187.403" x2="141.988" y2="306.343" gradientUnits="userSpaceOnUse">
<stop offset="0.2309" stop-color="#00FFFB"/>
<stop offset="0.2737" stop-color="#00DFDC"/>
<stop offset="0.3511" stop-color="#00ABA9"/>
<stop offset="0.432" stop-color="#007D7B"/>
<stop offset="0.5147" stop-color="#005755"/>
<stop offset="0.5998" stop-color="#003736"/>
<stop offset="0.6879" stop-color="#001F1E"/>
<stop offset="0.7803" stop-color="#000E0D"/>
<stop offset="0.88" stop-color="#000303"/>
<stop offset="1"/>
</linearGradient>
</defs>
</svg>
